PathFileType	4	(X/Y/Z)	D:\TRACE\v60_Jaco2_6-2-23\v60_baseline_3-platform.trc
DataRate	CameraRate	NumFrames	NumMarkers	Units	OrigDataRate	OrigDataStartFrame	OrigNumFrames
100.00	100.00	      43	5	mm	100.00	813	      6500
Frame#	Time	Left_Front			Right_Front			Left_Aft			Right_Aft			Post			
		X1	Y1	Z1	X2	Y2	Z2	X3	Y3	Z3	X4	Y4	Z4	X5	Y5	Z5	

813	8.120	-800.58813	9.06945	-638.66675	769.38538	10.17586	-644.38458	-708.72913	7.93218	496.13220	733.24951	6.83453	505.22034	-14.03881	1308.27014	-962.22125	
814	8.130	-800.58978	8.95637	-638.73938	769.37305	10.17034	-644.34149	-708.78204	7.99540	496.09375	733.30640	6.85532	505.24384	-14.08666	1308.20605	-962.08936	
815	8.140	-800.52490	8.82177	-638.88782	769.38495	10.14977	-644.33972	-708.76001	7.94638	496.06436	733.32025	6.86050	505.22470	-14.06071	1308.07629	-961.90369	
816	8.150	-800.47858	8.86419	-638.88867	769.39124	10.06416	-644.38507	-708.66870	7.96410	496.07300	733.38025	6.92956	505.26749	-14.09295	1308.08801	-961.71838	
817	8.160	-800.53729	8.95713	-638.81409	769.41284	10.11987	-644.34113	-708.64209	7.96318	496.04703	732.49615	6.04597	504.43283	-14.07031	1308.08606	-961.59631	
818	8.170	-800.54358	9.02806	-638.75677	769.43256	10.16373	-644.35193	-708.69604	8.06006	496.11072	732.92651	6.40940	504.69803	-14.10872	1308.12671	-961.65228	
819	8.180	-800.58325	8.95285	-638.72437	769.38574	10.18968	-644.39075	-708.73645	7.98006	496.11685	732.83661	6.45947	505.06683	-14.12544	1308.15784	-961.70886	
820	8.190	-800.54272	8.87044	-638.79132	769.42242	10.17763	-644.37604	-708.74426	7.92339	496.10489	733.20819	6.75040	505.30557	-14.11723	1308.25208	-961.84692	
821	8.200	-800.52228	8.91913	-638.81384	769.37720	10.08613	-644.38873	-708.64136	7.78756	496.18082	733.30182	6.88765	505.43314	-14.09100	1308.14575	-961.93762	
822	8.210	-800.50885	8.97511	-638.83417	769.39447	10.07615	-644.38373	-708.48560	7.54128	496.06296	733.29504	6.90025	505.51181	-14.03886	1308.14880	-961.94250	
823	8.220	-800.51221	9.02420	-638.80194	769.42365	10.14224	-644.35095	-708.55725	7.73694	496.11285	733.27411	6.92737	505.55023	-14.08293	1308.20081	-961.98584	
824	8.230	-800.60089	8.94930	-638.70093	769.36890	10.20114	-644.34949	-708.56024	7.67643	496.14813	733.35352	6.95921	505.54333	-14.11613	1308.15771	-961.88416	
825	8.240	-800.61725	8.94437	-638.75537	769.42426	10.12397	-644.36761	-709.06818	8.17746	496.59955	733.34747	6.96012	505.55746	-14.11281	1308.13452	-961.74933	
826	8.250	-800.58942	8.84307	-638.79480	769.39624	10.08946	-644.37201	-708.78931	7.89725	496.49167	733.34186	6.96651	505.57269	-14.00272	1308.00671	-961.67517	
827	8.260	-800.49927	8.89931	-638.89526	769.34528	10.09964	-644.37097	-708.83649	8.00117	496.32928	733.26569	6.94558	505.56589	-14.08558	1308.05542	-961.78729	
828	8.270	-800.48157	8.96259	-638.83936	769.37939	10.13794	-644.32568	-708.84283	8.02600	496.35086	733.28680	6.91731	505.56580	-14.09683	1308.10291	-961.81110	
829	8.280	-800.53973	9.04161	-638.75366	769.41498	10.15776	-644.37805	-709.08301	8.34146	495.99097	733.28369	6.92979	505.58276	-14.02804	1308.15332	-961.99561	
830	8.290	-800.61273	9.00076	-638.70209	769.37903	10.21480	-644.33966	-708.99780	8.13081	496.21964	733.31683	6.96844	505.57138	-14.10236	1308.16553	-962.06396	
831	8.300	-800.58527	8.87481	-638.72253	769.35486	10.20167	-644.36365	-708.98047	8.11174	496.28296	733.26239	6.91050	505.57953	-14.03024	1308.18311	-962.04041	
832	8.310	-800.51331	8.92673	-638.85797	769.40845	10.20290	-644.38257	-708.87500	8.06232	496.32449	733.22809	6.90192	505.56342	-14.02968	1308.13489	-961.96454	
833	8.320	-800.46490	9.03769	-638.84906	769.33160	10.29438	-644.44244	-708.91718	8.13967	496.25888	733.26788	6.94065	505.60101	-13.99844	1308.09326	-961.81726	
834	8.330	-800.48511	9.14289	-638.82886	769.36285	10.30980	-644.42908	-708.94751	8.21082	496.23508	733.29254	6.92407	505.55585	-14.10688	1308.09485	-961.78131	
835	8.340	-800.54333	9.04993	-638.76654	769.42542	10.11977	-644.35388	-708.77594	8.06506	496.07562	733.36487	6.96984	505.53461	-14.08411	1308.16284	-961.66962	
836	8.350	-800.68048	8.80021	-638.69604	769.44769	10.04215	-644.33185	-709.16895	8.37197	496.41534	732.73633	6.48483	505.18961	-14.05584	1308.15405	-961.75659	
837	8.360	-800.60956	8.56673	-638.89819	769.36200	10.14884	-644.40820	-709.26758	8.58078	496.29330	733.17078	6.75711	505.56610	-13.93215	1308.17639	-961.85974	
838	8.370	-800.50043	8.67075	-638.94971	769.38104	10.15468	-644.38580	-708.71259	7.99230	496.05750	733.42859	6.92280	505.89145	-14.04752	1308.19336	-961.86249	
839	8.380	-800.42542	8.90053	-638.84613	769.36761	10.16782	-644.36584	-708.69885	7.97940	496.11761	733.51373	6.89248	505.90710	-14.09809	1308.27002	-961.96674	
840	8.390	-800.54114	9.09653	-638.72217	769.38202	10.23828	-644.42047	-708.69000	8.03724	496.15762	733.52747	6.94191	505.84747	-14.07967	1308.27112	-961.93738	
841	8.400	-800.65424	8.94119	-638.65332	769.41821	10.25334	-644.40588	-708.70850	8.09015	496.09128	733.48657	6.95218	505.85138	-14.05784	1308.18262	-961.74664	
842	8.410	-800.70477	8.77927	-638.75366	769.42004	10.15399	-644.35986	-709.27740	8.56902	496.28738	733.46698	6.93088	505.85883	-14.10325	1308.12244	-961.61646	
843	8.420	-800.60840	8.60711	-638.92822	769.40942	10.13767	-644.34955	-709.22076	8.39371	496.32928	733.43024	6.92914	505.88376	-14.06581	1308.07495	-961.60651	
844	8.430	-800.52075	8.73553	-638.92981	769.36304	10.17657	-644.38171	-709.24500	8.49109	496.24084	733.11792	6.92344	506.04221	-14.04275	1308.02502	-961.69824	
845	8.440	-800.52368	8.93680	-638.81232	769.41345	10.20340	-644.37976	-708.68719	8.04585	496.09161	733.45709	6.90566	505.85193	-13.94739	1308.05859	-961.75513	
846	8.450	-800.63434	8.92661	-638.67108	769.43951	10.20976	-644.37207	-708.70746	8.06930	496.10406	733.47198	6.92696	505.85422	-14.04740	1308.17163	-961.96332	
847	8.460	-800.68732	8.90179	-638.66119	769.44720	10.25861	-644.40790	-708.65430	8.06093	496.15881	733.60828	6.97062	505.92822	-14.01050	1308.23779	-962.10596	
848	8.470	-800.66046	8.80471	-638.78833	769.38013	10.29050	-644.45032	-708.74640	8.03679	496.06281	733.28448	6.86231	505.55371	-14.00163	1308.23975	-962.12616	
849	8.480	-800.52716	8.81847	-638.86609	769.37207	10.21644	-644.38574	-708.73743	7.96230	495.92194	733.21442	6.80248	505.62646	-14.01133	1308.23022	-962.07257	
850	8.490	-800.47876	8.84030	-638.86731	769.33282	10.16560	-644.40863	-708.50830	7.68825	496.10867	733.10419	6.74517	505.66141	-14.05520	1308.15942	-961.83209	
851	8.500	-800.54456	8.87487	-638.81152	769.28271	10.23587	-644.38507	-708.53101	7.78379	496.15826	733.18347	6.77387	505.60587	-14.10491	1308.12109	-961.66174	
852	8.510	-800.63025	8.86652	-638.75183	769.41858	10.26924	-644.37531	-708.51422	7.78121	496.14243	733.23785	6.88327	505.56177	-14.05296	1308.14600	-961.56256	
853	8.520	-800.67169	8.87996	-638.78210	769.34283	10.26369	-644.41394	-707.93610	6.97375	496.12384	733.29773	6.90133	505.55234	-14.11200	1308.14050	-961.51935	
854	8.530	-800.56805	8.84457	-638.88385	769.42816	10.20023	-644.37360	-708.24341	7.54972	495.98291	733.27081	6.88894	505.55554	-14.18964	1308.10547	-961.56396	
855	8.540	-800.50006	8.76327	-638.94324	769.39825	10.15767	-644.38989	-708.21008	7.47809	495.97754	734.10571	7.63446	505.73373	-14.10621	1308.11279	-961.70038	
